<?xml version="1.0" standalone="no"?>
<!DOCTYPE svg PUBLIC "-//W3C//DTD SVG 20010904//EN"
 "http://www.w3.org/TR/2001/REC-SVG-20010904/DTD/svg10.dtd">
<svg version="1.0" xmlns="http://www.w3.org/2000/svg"
 width="169.000000pt" height="169.000000pt" viewBox="0 0 169.000000 169.000000"
 preserveAspectRatio="xMidYMid meet">
<metadata>
Created by potrace 1.14, written by Peter Selinger 2001-2017
</metadata>
<g transform="translate(0.000000,169.000000) scale(0.100000,-0.100000)"
fill="#000000" stroke="none">
<path d="M418 1210 c-38 -7 -68 -24 -105 -59 -34 -32 -28 -33 25 -3 l47 27
627 0 628 0 22 23 23 22 -615 -1 c-338 -1 -631 -5 -652 -9z"/>
<path d="M6 1172 c-5 -8 103 -268 181 -434 l36 -78 61 138 c34 75 69 151 80
168 40 67 18 64 615 66 l540 1 37 38 c24 24 33 39 24 40 -8 0 -272 0 -587 0
-619 0 -607 1 -666 -55 -16 -14 -45 -61 -64 -104 l-36 -77 -13 30 c-7 17 -23
53 -35 80 -53 124 -93 185 -124 185 -7 0 -20 3 -28 6 -8 3 -17 1 -21 -4z"/>
<path d="M220 1137 c0 -11 -8 -17 -21 -17 -18 0 -19 -3 -9 -15 7 -8 10 -21 7
-28 -3 -9 5 -13 29 -13 20 0 33 4 30 11 -2 5 4 19 13 29 9 11 11 16 4 12 -6
-3 -21 3 -32 16 -18 18 -21 19 -21 5z"/>
<path d="M453 992 c-12 -8 -163 -306 -163 -322 0 -5 13 -10 30 -10 28 0 33 7
79 98 28 53 51 94 52 90 1 -5 2 -11 3 -15 1 -5 8 -45 15 -90 l13 -83 38 0 37
0 59 128 c32 70 66 143 76 162 10 21 12 37 7 41 -8 5 -46 5 -69 0 -3 -1 -23
-44 -45 -96 -40 -96 -54 -114 -56 -72 0 12 -2 31 -5 42 -2 11 -7 43 -10 70 -3
28 -7 51 -9 53 -6 7 -43 10 -52 4z"/>
<path d="M758 992 c-9 -2 -20 -13 -24 -24 -3 -12 -35 -81 -70 -155 -35 -74
-64 -138 -64 -144 0 -5 40 -9 91 -9 l90 0 15 35 c7 19 14 36 14 38 0 3 -17 4
-37 4 -63 1 -62 0 -50 28 7 14 19 25 27 26 8 0 30 1 49 2 27 2 38 9 52 32 25
43 24 45 -26 45 -30 0 -45 4 -45 13 0 25 24 37 72 37 43 0 49 3 63 31 9 17 14
34 11 37 -7 6 -141 10 -168 4z"/>
<path d="M954 982 c-8 -7 -14 -17 -14 -22 0 -5 -3 -15 -6 -24 -5 -12 0 -16 20
-16 14 0 26 -4 26 -9 0 -10 -34 -88 -78 -178 -16 -34 -27 -64 -24 -67 3 -4 22
-6 42 -6 l37 0 61 130 c60 129 61 130 94 130 29 0 35 5 46 32 6 17 9 34 6 37
-3 3 -48 6 -101 6 -68 1 -100 -3 -109 -13z"/>
<path d="M1227 978 c-104 -53 -166 -252 -94 -303 29 -20 52 -19 96 6 37 21 95
92 84 103 -14 14 -43 4 -71 -23 -34 -35 -63 -34 -76 2 -20 55 41 162 88 155
11 -2 26 -14 33 -28 8 -15 21 -24 35 -24 19 0 23 5 24 29 0 25 -13 85 -20 85
0 0 -15 4 -32 9 -23 6 -39 4 -67 -11z"/>
<path d="M922 602 c-12 -2 -27 -12 -32 -23 -9 -16 -7 -21 15 -29 14 -5 25 -14
25 -20 0 -16 -30 -24 -43 -11 -16 16 -27 14 -21 -4 7 -17 37 -20 65 -5 26 15
24 35 -7 48 -14 7 -22 17 -19 22 9 14 43 12 47 -2 3 -8 6 -9 11 -1 9 15 -14
30 -41 25z"/>
<path d="M1084 593 c-19 -18 -24 -29 -31 -73 -2 -17 4 -10 19 20 13 25 27 48
33 52 5 4 7 9 4 13 -3 3 -14 -3 -25 -12z"/>
<path d="M280 580 c-30 -30 -24 -75 10 -76 14 0 32 -4 39 -8 9 -6 12 -5 9 4
-2 8 4 22 14 32 11 11 18 29 16 41 -4 32 -59 36 -88 7z m70 -14 c0 -26 -24
-51 -40 -41 -5 3 -10 2 -10 -4 0 -6 -7 -8 -15 -5 -33 13 1 74 41 74 19 0 24
-5 24 -24z"/>
<path d="M560 575 c-6 -14 -14 -36 -20 -50 -6 -16 -6 -25 0 -25 6 0 10 5 10
10 0 6 9 29 19 50 11 22 15 40 10 40 -5 0 -14 -11 -19 -25z"/>
<path d="M633 585 c-17 -19 -28 -85 -14 -85 7 0 10 4 7 8 -3 5 2 21 10 37 17
34 16 60 -3 40z"/>
<path d="M1203 588 c-5 -7 -14 -30 -20 -50 -9 -32 -9 -38 4 -38 8 0 12 4 8 10
-3 5 1 26 10 46 16 38 15 54 -2 32z"/>
<path d="M381 549 c-16 -45 -14 -49 17 -49 25 0 31 6 45 42 17 42 5 40 -17 -4
-6 -12 -19 -24 -28 -26 -15 -3 -16 1 -7 28 6 17 9 33 6 36 -2 3 -10 -9 -16
-27z"/>
<path d="M479 564 c-13 -16 -12 -16 8 -6 14 8 24 9 28 2 6 -9 -1 -14 -17 -11
-5 0 -8 -3 -8 -9 0 -5 6 -10 13 -10 17 0 -14 -20 -32 -20 -11 0 -11 3 0 17 12
14 12 16 -1 11 -8 -2 -17 -12 -18 -22 -3 -14 2 -17 28 -14 25 3 35 11 46 36 7
18 9 32 4 32 -4 0 -15 2 -23 5 -7 3 -20 -2 -28 -11z"/>
<path d="M664 539 c0 -25 -6 -44 -14 -49 -8 -6 -10 -10 -4 -10 22 0 42 35 37
63 -8 43 -19 40 -19 -4z"/>
<path d="M706 555 c-9 -14 -13 -25 -9 -25 10 0 36 40 30 46 -2 3 -12 -7 -21
-21z"/>
<path d="M990 570 c-13 -8 -12 -10 3 -10 9 0 17 5 17 10 0 12 -1 12 -20 0z"/>
<path d="M1023 568 c4 -10 2 -18 -3 -18 -6 0 -10 -6 -10 -14 0 -19 -17 -29
-32 -20 -8 5 -6 10 8 16 18 8 18 8 -1 5 -11 -1 -21 -10 -23 -20 -3 -14 3 -17
27 -15 37 3 64 50 41 71 -10 10 -12 8 -7 -5z"/>
<path d="M1112 560 c-26 -25 -28 -48 -6 -57 19 -7 50 10 47 26 -2 6 2 11 7 11
16 0 11 27 -6 34 -20 8 -17 9 -42 -14z m30 -11 c-12 -5 -22 -11 -22 -14 0 -4
4 -4 9 0 5 3 12 1 15 -4 3 -5 -1 -12 -10 -15 -22 -8 -24 -8 -24 8 0 20 29 48
43 39 6 -4 2 -9 -11 -14z"/>
<path d="M1230 536 c0 -26 -5 -46 -12 -49 -7 -3 -8 -6 -2 -6 6 -1 24 16 40 37
37 46 54 77 22 40 -28 -33 -38 -35 -33 -8 2 11 0 22 -6 25 -5 4 -9 -13 -9 -39z"/>
<path d="M582 541 c-7 -19 -10 -36 -7 -39 6 -7 26 49 22 62 -2 6 -9 -5 -15
-23z"/>
<path d="M95 540 c-2 -4 27 -7 65 -7 39 0 70 3 70 7 0 9 -129 9 -135 0z"/>
<path d="M785 540 c-3 -5 1 -10 10 -10 9 0 13 5 10 10 -3 6 -8 10 -10 10 -2 0
-7 -4 -10 -10z"/>
<path d="M1340 543 c0 -5 32 -9 70 -10 39 0 70 3 70 7 0 4 -31 8 -70 9 -38 1
-70 -2 -70 -6z"/>
</g>
</svg>
